<svg xmlns="http://www.w3.org/2000/svg" id="canvas" viewBox="272.674 371.316 1250.826 130.797"><path d="M 322.59,376.07 C 321.59 376.25, 321.01 376.74, 320.20 377.92 C 319.39 379.10, 319.01 379.97, 318.54 381.97 C 318.06 383.97, 317.89 385.29, 317.83 387.93 C 317.77 390.57, 318.05 392.10, 318.25 395.18 C 318.44 398.26, 318.65 399.89, 318.81 403.34 C 318.97 406.78, 318.99 408.63, 319.05 412.40 C 319.10 416.16, 319.15 418.20, 319.07 422.16 C 319.00 426.13, 318.98 428.22, 318.67 432.23 C 318.36 436.23, 318.16 438.28, 317.53 442.20 C 316.91 446.11, 316.53 448.12, 315.56 451.80 C 314.59 455.48, 314.01 457.33, 312.68 460.60 C 311.36 463.88, 310.57 465.45, 308.94 468.18 C 307.31 470.92, 306.36 472.15, 304.55 474.29 C 302.75 476.42, 301.77 477.31, 299.92 478.84 C 298.08 480.37, 297.13 480.99, 295.32 481.95 C 293.51 482.91, 292.55 483.20, 290.88 483.63 C 289.20 484.06, 288.34 484.10, 286.93 484.11 C 285.53 484.11, 284.85 483.96, 283.86 483.66 C 282.87 483.35, 282.60 483.06, 281.97 482.57 C 281.34 482.08, 281.33 481.69, 280.72 481.19 C 280.10 480.69, 279.76 480.16, 278.90 480.08 C 278.05 480.00, 277.07 480.07, 276.44 480.78 C 275.82 481.50, 275.50 482.36, 275.77 483.65 C 276.04 484.93, 276.57 486.02, 277.79 487.20 C 279.00 488.37, 280.04 488.86, 281.84 489.51 C 283.65 490.17, 284.69 490.40, 286.81 490.47 C 288.93 490.54, 290.14 490.43, 292.44 489.87 C 294.74 489.30, 295.97 488.86, 298.31 487.64 C 300.64 486.43, 301.91 485.69, 304.12 483.79 C 306.33 481.88, 307.41 480.68, 309.35 478.11 C 311.30 475.53, 312.19 474.04, 313.83 470.91 C 315.48 467.79, 316.25 466.06, 317.57 462.48 C 318.88 458.90, 319.44 456.93, 320.40 453.03 C 321.36 449.12, 321.73 447.04, 322.37 442.96 C 323.01 438.88, 323.23 436.76, 323.60 432.64 C 323.97 428.51, 324.02 426.37, 324.21 422.33 C 324.40 418.30, 324.40 416.26, 324.55 412.47 C 324.69 408.67, 324.76 406.81, 324.94 403.35 C 325.12 399.90, 325.23 398.21, 325.44 395.20 C 325.66 392.20, 325.84 390.76, 326.02 388.32 C 326.21 385.88, 326.36 384.78, 326.38 382.99 C 326.39 381.19, 326.34 380.54, 326.11 379.35 C 325.87 378.15, 325.91 377.66, 325.21 377.00 C 324.51 376.34, 323.59 375.89, 322.59 376.07" style="stroke: black; fill: black;"/><path d="M 382.47,428.84 C 382.25 427.83, 381.71 427.23, 380.49 426.56 C 379.27 425.88, 378.35 425.53, 376.37 425.45 C 374.38 425.38, 373.03 425.44, 370.56 426.18 C 368.10 426.92, 366.72 427.52, 364.06 429.16 C 361.39 430.79, 360.02 432.00, 357.22 434.37 C 354.43 436.73, 352.79 438.15, 350.08 440.99 C 347.37 443.83, 345.89 445.49, 343.67 448.58 C 341.46 451.67, 340.25 453.31, 339.00 456.44 C 337.75 459.57, 337.32 461.30, 337.43 464.24 C 337.53 467.18, 338.03 468.78, 339.51 471.14 C 341.00 473.50, 342.22 474.66, 344.84 476.06 C 347.46 477.47, 349.23 477.91, 352.62 478.16 C 356.01 478.41, 358.03 478.07, 361.80 477.33 C 365.57 476.58, 367.66 475.92, 371.47 474.44 C 375.28 472.97, 377.30 472.02, 380.87 469.95 C 384.44 467.88, 386.29 466.65, 389.32 464.09 C 392.35 461.54, 393.80 460.07, 396.03 457.18 C 398.26 454.29, 399.31 452.70, 400.47 449.64 C 401.63 446.58, 401.86 444.81, 401.84 441.90 C 401.82 438.99, 401.40 437.52, 400.38 435.10 C 399.37 432.69, 398.56 431.54, 396.78 429.82 C 395.00 428.11, 393.73 427.36, 391.48 426.53 C 389.24 425.69, 387.73 425.48, 385.55 425.65 C 383.37 425.81, 382.05 426.41, 380.59 427.37 C 379.13 428.33, 378.47 429.35, 378.25 430.44 C 378.03 431.53, 378.61 432.30, 379.49 432.82 C 380.37 433.34, 381.36 433.07, 382.65 433.03 C 383.95 432.98, 384.62 432.65, 385.97 432.60 C 387.31 432.56, 388.06 432.45, 389.38 432.81 C 390.69 433.17, 391.46 433.48, 392.55 434.40 C 393.63 435.33, 394.16 435.94, 394.78 437.44 C 395.40 438.93, 395.66 439.87, 395.63 441.88 C 395.60 443.90, 395.45 445.12, 394.63 447.51 C 393.80 449.91, 393.26 451.34, 391.51 453.85 C 389.76 456.37, 388.53 457.77, 385.88 460.09 C 383.24 462.40, 381.53 463.58, 378.27 465.43 C 375.02 467.27, 373.09 468.12, 369.60 469.31 C 366.11 470.50, 364.11 470.95, 360.82 471.38 C 357.53 471.80, 355.80 471.64, 353.14 471.42 C 350.49 471.20, 349.34 470.97, 347.55 470.30 C 345.76 469.63, 345.05 469.29, 344.19 468.08 C 343.33 466.87, 343.15 466.10, 343.25 464.24 C 343.35 462.37, 343.67 461.22, 344.70 458.76 C 345.73 456.30, 346.49 454.66, 348.40 451.93 C 350.31 449.19, 351.70 447.59, 354.25 445.10 C 356.79 442.60, 358.42 441.31, 361.13 439.45 C 363.84 437.59, 365.44 436.97, 367.78 435.80 C 370.13 434.63, 371.08 434.15, 372.85 433.58 C 374.62 433.02, 375.34 433.16, 376.64 432.97 C 377.94 432.77, 378.36 432.88, 379.35 432.62 C 380.34 432.35, 380.97 432.40, 381.59 431.65 C 382.21 430.90, 382.69 429.86, 382.47 428.84" style="stroke: black; fill: black;"/><path d="M 432.14,430.02 C 431.10 429.96, 430.47 430.23, 429.06 431.29 C 427.65 432.35, 426.59 433.10, 425.08 435.32 C 423.57 437.53, 422.87 439.34, 421.50 442.35 C 420.12 445.36, 419.38 447.22, 418.20 450.37 C 417.02 453.52, 416.16 455.12, 415.60 458.10 C 415.04 461.07, 414.98 462.66, 415.43 465.24 C 415.87 467.82, 416.34 469.10, 417.81 471.01 C 419.29 472.93, 420.39 473.83, 422.80 474.82 C 425.21 475.81, 426.83 476.19, 429.86 475.95 C 432.90 475.72, 434.60 475.01, 437.96 473.64 C 441.31 472.27, 443.11 471.22, 446.65 469.08 C 450.19 466.94, 452.12 465.63, 455.67 462.94 C 459.22 460.25, 461.09 458.66, 464.39 455.63 C 467.69 452.61, 469.36 450.86, 472.18 447.83 C 475.00 444.80, 476.41 443.22, 478.47 440.49 C 480.53 437.75, 481.64 436.45, 482.46 434.17 C 483.29 431.90, 483.29 430.47, 482.61 429.12 C 481.94 427.76, 480.76 427.14, 479.10 427.39 C 477.43 427.65, 475.94 428.41, 474.27 430.39 C 472.60 432.38, 472.02 434.18, 470.74 437.31 C 469.47 440.43, 468.97 442.59, 467.89 446.03 C 466.82 449.48, 466.14 451.34, 465.39 454.54 C 464.64 457.74, 464.30 459.25, 464.16 462.03 C 464.01 464.81, 464.08 466.22, 464.66 468.43 C 465.24 470.65, 466.01 471.75, 467.06 473.11 C 468.10 474.47, 468.83 474.78, 469.89 475.22 C 470.95 475.65, 471.67 475.65, 472.34 475.28 C 473.02 474.91, 473.24 474.05, 473.28 473.37 C 473.33 472.69, 472.86 472.53, 472.56 471.88 C 472.26 471.23, 472.21 471.05, 471.78 470.10 C 471.36 469.15, 470.71 468.64, 470.45 467.13 C 470.20 465.62, 470.25 464.75, 470.50 462.54 C 470.76 460.33, 470.99 458.95, 471.73 456.10 C 472.47 453.25, 472.93 451.38, 474.20 448.29 C 475.47 445.20, 476.68 443.42, 478.09 440.64 C 479.49 437.86, 480.53 436.54, 481.23 434.40 C 481.94 432.25, 481.89 431.04, 481.61 429.91 C 481.33 428.78, 480.74 428.44, 479.84 428.74 C 478.94 429.04, 478.33 429.74, 477.12 431.42 C 475.91 433.10, 475.52 434.54, 473.78 437.16 C 472.05 439.78, 470.97 441.53, 468.45 444.52 C 465.92 447.51, 464.31 449.23, 461.17 452.12 C 458.03 455.01, 456.18 456.52, 452.75 458.95 C 449.31 461.39, 447.37 462.56, 443.98 464.28 C 440.58 466.01, 438.74 466.68, 435.78 467.57 C 432.81 468.47, 431.39 468.48, 429.15 468.77 C 426.91 469.05, 426.02 469.20, 424.59 469.01 C 423.16 468.81, 422.67 468.64, 422.01 467.78 C 421.34 466.93, 421.21 466.34, 421.28 464.72 C 421.35 463.09, 421.67 462.00, 422.34 459.65 C 423.02 457.31, 423.45 455.73, 424.66 452.97 C 425.86 450.21, 426.83 448.53, 428.36 445.87 C 429.89 443.20, 431.17 441.89, 432.32 439.66 C 433.47 437.42, 433.73 436.31, 434.12 434.69 C 434.51 433.08, 434.66 432.52, 434.26 431.58 C 433.87 430.65, 433.18 430.08, 432.14 430.02" style="stroke: black; fill: black;"/><path d="M 515.54,438.43 C 514.48 438.67, 513.99 439.28, 512.82 440.61 C 511.65 441.94, 510.89 442.87, 509.68 445.09 C 508.46 447.32, 507.93 449.07, 506.74 451.73 C 505.56 454.39, 504.86 455.94, 503.75 458.38 C 502.64 460.82, 501.87 462.03, 501.19 463.93 C 500.51 465.83, 500.19 466.73, 500.34 467.88 C 500.48 469.03, 501.01 469.55, 501.91 469.68 C 502.81 469.80, 503.69 469.59, 504.83 468.49 C 505.97 467.39, 506.62 466.39, 507.63 464.16 C 508.63 461.93, 508.67 460.16, 509.87 457.34 C 511.06 454.52, 511.81 452.84, 513.59 450.08 C 515.38 447.31, 516.53 445.88, 518.79 443.52 C 521.05 441.15, 522.43 440.01, 524.89 438.28 C 527.36 436.54, 528.76 435.94, 531.11 434.83 C 533.47 433.72, 534.58 433.27, 536.67 432.72 C 538.76 432.18, 539.79 432.28, 541.58 432.12 C 543.36 431.96, 544.21 432.12, 545.60 431.93 C 546.99 431.74, 547.83 431.78, 548.53 431.18 C 549.24 430.58, 549.53 429.82, 549.11 428.93 C 548.68 428.04, 547.95 427.39, 546.41 426.74 C 544.87 426.09, 543.67 425.73, 541.41 425.68 C 539.14 425.63, 537.72 425.84, 535.09 426.49 C 532.46 427.15, 531.01 427.57, 528.25 428.95 C 525.49 430.33, 524.05 431.30, 521.30 433.39 C 518.56 435.48, 517.11 436.78, 514.54 439.39 C 511.98 442.00, 510.74 443.54, 508.49 446.43 C 506.23 449.32, 505.12 450.97, 503.29 453.83 C 501.45 456.69, 500.26 458.20, 499.31 460.75 C 498.36 463.30, 498.30 464.71, 498.54 466.56 C 498.77 468.41, 499.44 469.27, 500.49 470.01 C 501.54 470.76, 502.45 470.83, 503.77 470.30 C 505.10 469.77, 505.73 469.03, 507.11 467.37 C 508.50 465.71, 509.28 464.41, 510.69 461.98 C 512.11 459.56, 512.86 457.93, 514.19 455.24 C 515.53 452.56, 516.48 450.99, 517.36 448.55 C 518.25 446.11, 518.46 444.86, 518.61 443.04 C 518.76 441.22, 518.74 440.36, 518.13 439.44 C 517.52 438.52, 516.60 438.20, 515.54 438.43" style="stroke: black; fill: black;"/><path d="M 578.66,433.19 C 577.62 433.28, 577.12 433.68, 575.80 434.86 C 574.48 436.04, 573.53 436.83, 572.07 439.11 C 570.61 441.39, 570.10 443.30, 568.49 446.26 C 566.89 449.22, 565.86 450.97, 564.04 453.89 C 562.23 456.82, 561.01 458.34, 559.40 460.89 C 557.78 463.44, 556.78 464.65, 555.96 466.65 C 555.15 468.64, 554.99 469.66, 555.32 470.86 C 555.66 472.05, 556.41 472.62, 557.63 472.63 C 558.85 472.63, 559.94 472.39, 561.42 470.90 C 562.89 469.41, 563.36 467.95, 565.02 465.18 C 566.68 462.41, 567.37 460.33, 569.73 457.04 C 572.08 453.75, 573.68 451.89, 576.78 448.74 C 579.88 445.58, 581.79 443.89, 585.21 441.26 C 588.62 438.63, 590.57 437.35, 593.88 435.58 C 597.18 433.80, 598.99 433.25, 601.72 432.40 C 604.45 431.54, 605.68 431.38, 607.53 431.29 C 609.37 431.21, 610.00 431.30, 610.93 431.98 C 611.86 432.66, 611.99 433.19, 612.16 434.69 C 612.34 436.19, 612.10 437.17, 611.81 439.49 C 611.51 441.82, 611.42 443.38, 610.69 446.32 C 609.95 449.25, 609.31 451.09, 608.12 454.17 C 606.94 457.25, 605.95 458.89, 604.76 461.72 C 603.56 464.54, 602.89 465.98, 602.15 468.29 C 601.41 470.60, 601.19 471.64, 601.06 473.27 C 600.93 474.89, 601.18 475.52, 601.51 476.41 C 601.83 477.31, 602.19 477.52, 602.69 477.73 C 603.18 477.94, 603.56 477.68, 603.96 477.47 C 604.37 477.27, 604.27 477.25, 604.73 476.72 C 605.19 476.18, 605.55 476.02, 606.26 474.81 C 606.97 473.59, 607.35 472.72, 608.28 470.62 C 609.22 468.52, 609.76 467.13, 610.94 464.32 C 612.12 461.50, 612.89 459.76, 614.18 456.53 C 615.46 453.31, 616.36 451.47, 617.36 448.17 C 618.35 444.87, 619.05 443.09, 619.15 440.03 C 619.25 436.98, 618.91 435.34, 617.85 432.90 C 616.79 430.47, 615.89 429.30, 613.85 427.87 C 611.80 426.44, 610.41 425.91, 607.63 425.74 C 604.85 425.57, 603.19 425.91, 599.95 427.02 C 596.71 428.13, 594.95 429.17, 591.43 431.27 C 587.91 433.38, 585.95 434.75, 582.34 437.55 C 578.73 440.34, 576.78 442.07, 573.38 445.25 C 569.98 448.42, 568.28 450.29, 565.34 453.41 C 562.39 456.54, 560.71 458.12, 558.64 460.86 C 556.57 463.60, 555.62 465.00, 554.98 467.11 C 554.34 469.23, 554.81 470.34, 555.44 471.43 C 556.07 472.51, 556.91 472.82, 558.13 472.54 C 559.34 472.27, 560.12 471.68, 561.52 470.07 C 562.92 468.46, 563.54 467.05, 565.14 464.51 C 566.74 461.98, 567.61 460.27, 569.51 457.38 C 571.40 454.49, 572.65 452.87, 574.62 450.06 C 576.59 447.26, 578.05 445.81, 579.35 443.36 C 580.65 440.91, 580.80 439.59, 581.12 437.81 C 581.45 436.03, 581.47 435.37, 580.98 434.45 C 580.49 433.52, 579.69 433.11, 578.66 433.19" style="stroke: black; fill: black;"/><path d="M 679.95,441.69 C 680.29 440.72, 680.21 439.96, 679.54 438.85 C 678.86 437.75, 678.19 437.01, 676.59 436.17 C 674.99 435.33, 673.81 434.90, 671.52 434.65 C 669.23 434.41, 667.89 434.41, 665.15 434.96 C 662.40 435.51, 660.84 436.01, 657.81 437.38 C 654.77 438.76, 653.07 439.81, 649.95 441.84 C 646.83 443.88, 645.12 445.15, 642.22 447.56 C 639.31 449.98, 637.76 451.32, 635.44 453.90 C 633.13 456.49, 631.90 457.84, 630.65 460.47 C 629.41 463.10, 629.12 464.61, 629.20 467.05 C 629.28 469.49, 629.70 470.79, 631.06 472.66 C 632.42 474.52, 633.57 475.43, 635.99 476.39 C 638.41 477.35, 640.08 477.71, 643.18 477.47 C 646.28 477.22, 648.03 476.43, 651.47 475.17 C 654.91 473.91, 656.80 473.04, 660.37 471.17 C 663.94 469.29, 665.87 468.13, 669.32 465.82 C 672.77 463.51, 674.56 462.10, 677.63 459.62 C 680.69 457.14, 682.29 455.81, 684.64 453.42 C 686.99 451.03, 688.30 449.82, 689.39 447.68 C 690.48 445.54, 690.59 444.11, 690.08 442.73 C 689.58 441.34, 688.49 440.70, 686.86 440.76 C 685.23 440.83, 683.80 441.36, 681.93 443.04 C 680.07 444.73, 679.11 446.35, 677.53 449.19 C 675.95 452.02, 675.34 454.08, 674.03 457.20 C 672.72 460.33, 671.79 461.91, 670.98 464.80 C 670.18 467.69, 670.00 469.21, 670.00 471.64 C 669.99 474.07, 670.29 475.25, 670.96 476.96 C 671.62 478.67, 672.35 479.41, 673.34 480.18 C 674.33 480.95, 675.13 481.02, 675.90 480.82 C 676.66 480.61, 677.01 479.80, 677.19 479.14 C 677.36 478.47, 676.97 478.23, 676.77 477.49 C 676.57 476.75, 676.34 476.51, 676.20 475.43 C 676.06 474.35, 675.74 473.80, 676.05 472.11 C 676.37 470.43, 676.87 469.38, 677.77 467.01 C 678.67 464.64, 679.14 462.97, 680.57 460.28 C 682.00 457.60, 683.33 456.06, 684.91 453.57 C 686.50 451.08, 687.63 449.86, 688.48 447.83 C 689.33 445.80, 689.38 444.60, 689.18 443.42 C 688.97 442.24, 688.43 441.78, 687.46 441.92 C 686.49 442.06, 685.76 442.64, 684.31 444.11 C 682.86 445.58, 682.25 446.99, 680.22 449.27 C 678.19 451.55, 676.93 453.09, 674.17 455.52 C 671.41 457.95, 669.67 459.31, 666.42 461.42 C 663.17 463.54, 661.28 464.59, 657.90 466.10 C 654.53 467.62, 652.63 468.22, 649.55 468.99 C 646.47 469.75, 644.89 469.67, 642.50 469.92 C 640.12 470.17, 639.14 470.32, 637.63 470.24 C 636.12 470.15, 635.59 470.08, 634.96 469.49 C 634.33 468.91, 634.22 468.52, 634.48 467.31 C 634.73 466.10, 635.13 465.29, 636.26 463.43 C 637.38 461.57, 638.14 460.26, 640.09 458.01 C 642.05 455.76, 643.39 454.32, 646.02 452.17 C 648.65 450.01, 650.33 448.85, 653.22 447.22 C 656.12 445.59, 657.84 444.97, 660.51 444.02 C 663.18 443.07, 664.53 442.83, 666.58 442.45 C 668.64 442.08, 669.41 442.03, 670.79 442.14 C 672.17 442.26, 672.52 442.71, 673.48 443.03 C 674.45 443.36, 674.73 443.62, 675.60 443.75 C 676.47 443.89, 676.97 444.12, 677.84 443.70 C 678.71 443.29, 679.61 442.67, 679.95 441.69" style="stroke: black; fill: black;"/><path d="M 743.72,391.73 C 742.69 391.91, 742.14 392.27, 740.90 393.75 C 739.66 395.24, 738.97 396.23, 737.50 399.15 C 736.02 402.08, 735.42 404.29, 733.52 408.38 C 731.62 412.46, 730.41 414.97, 728.01 419.58 C 725.60 424.20, 724.07 426.77, 721.51 431.43 C 718.96 436.10, 717.52 438.56, 715.24 442.91 C 712.95 447.25, 711.82 449.38, 710.07 453.15 C 708.32 456.92, 707.37 458.61, 706.49 461.76 C 705.60 464.91, 705.44 466.36, 705.62 468.89 C 705.80 471.42, 706.25 472.59, 707.38 474.40 C 708.51 476.21, 709.60 476.99, 711.28 477.95 C 712.96 478.92, 714.19 479.07, 715.80 479.22 C 717.41 479.36, 718.19 479.05, 719.35 478.68 C 720.50 478.31, 720.93 477.92, 721.56 477.36 C 722.18 476.80, 722.30 476.40, 722.48 475.89 C 722.67 475.37, 722.50 475.00, 722.48 474.79 C 722.46 474.58, 722.38 474.80, 722.39 474.84 C 722.40 474.89, 722.85 475.36, 722.54 475.01 C 722.22 474.66, 721.17 473.40, 720.81 473.08 C 720.45 472.77, 720.79 473.33, 720.74 473.44 C 720.69 473.56, 720.67 473.72, 720.56 473.66 C 720.46 473.60, 720.41 473.34, 720.21 473.14 C 720.02 472.94, 719.99 472.79, 719.59 472.66 C 719.19 472.54, 718.88 472.54, 718.21 472.51 C 717.53 472.47, 717.11 472.49, 716.19 472.49 C 715.28 472.49, 714.55 472.65, 713.61 472.49 C 712.67 472.34, 712.04 472.47, 711.51 471.72 C 710.97 470.97, 710.86 470.46, 710.93 468.75 C 711.00 467.04, 711.16 465.93, 711.83 463.17 C 712.51 460.41, 712.88 458.62, 714.29 454.94 C 715.70 451.26, 716.74 449.09, 718.89 444.78 C 721.05 440.47, 722.45 438.00, 725.04 433.39 C 727.63 428.78, 729.21 426.21, 731.85 421.71 C 734.49 417.21, 735.88 414.77, 738.24 410.90 C 740.60 407.03, 742.07 405.27, 743.65 402.37 C 745.22 399.47, 745.64 398.30, 746.11 396.40 C 746.59 394.50, 746.50 393.80, 746.03 392.87 C 745.55 391.93, 744.74 391.55, 743.72 391.73" style="stroke: black; fill: black;"/><path d="M 925.44,446.76 C 925.54 445.68, 925.21 444.84, 924.16 443.66 C 923.11 442.49, 922.24 441.71, 920.19 440.88 C 918.14 440.06, 916.67 439.64, 913.92 439.54 C 911.18 439.43, 909.64 439.59, 906.47 440.37 C 903.30 441.15, 901.55 441.86, 898.07 443.42 C 894.58 444.98, 892.67 446.00, 889.05 448.18 C 885.42 450.36, 883.38 451.71, 879.93 454.32 C 876.48 456.93, 874.66 458.46, 871.79 461.23 C 868.91 463.99, 867.39 465.37, 865.55 468.14 C 863.70 470.91, 863.02 472.44, 862.58 475.08 C 862.14 477.73, 862.38 479.17, 863.33 481.35 C 864.29 483.53, 865.21 484.60, 867.35 486.00 C 869.50 487.40, 871.04 488.08, 874.06 488.36 C 877.08 488.64, 878.96 488.25, 882.46 487.39 C 885.95 486.53, 887.82 485.72, 891.54 484.05 C 895.26 482.37, 897.27 481.37, 901.07 479.02 C 904.86 476.66, 906.87 475.26, 910.53 472.29 C 914.20 469.32, 916.02 467.61, 919.40 464.15 C 922.78 460.68, 924.41 458.77, 927.44 454.97 C 930.46 451.17, 931.91 449.08, 934.52 445.15 C 937.14 441.22, 938.32 439.14, 940.52 435.31 C 942.73 431.47, 943.74 429.55, 945.54 425.99 C 947.34 422.44, 948.12 420.69, 949.53 417.54 C 950.95 414.38, 951.86 412.90, 952.61 410.20 C 953.36 407.50, 953.66 405.94, 953.30 404.04 C 952.94 402.14, 952.19 401.17, 950.83 400.70 C 949.47 400.23, 948.14 400.27, 946.49 401.70 C 944.85 403.13, 944.13 404.65, 942.60 407.85 C 941.06 411.05, 940.52 413.47, 938.82 417.69 C 937.12 421.91, 936.02 424.45, 934.11 428.97 C 932.19 433.49, 931.09 435.90, 929.25 440.28 C 927.40 444.66, 926.45 446.86, 924.90 450.87 C 923.34 454.89, 922.59 456.85, 921.48 460.36 C 920.36 463.87, 919.76 465.48, 919.32 468.42 C 918.87 471.36, 918.99 472.75, 919.26 475.05 C 919.53 477.34, 920.00 478.39, 920.67 479.88 C 921.33 481.37, 921.79 481.79, 922.58 482.49 C 923.37 483.20, 923.93 483.32, 924.62 483.43 C 925.30 483.54, 925.68 483.46, 926.00 483.04 C 926.31 482.62, 926.19 481.77, 926.21 481.31 C 926.22 480.85, 926.07 481.01, 926.07 480.75 C 926.07 480.48, 926.26 480.53, 926.20 480.00 C 926.13 479.47, 925.99 479.20, 925.76 478.11 C 925.53 477.03, 925.11 476.34, 925.04 474.56 C 924.97 472.78, 925.11 471.79, 925.39 469.22 C 925.67 466.65, 925.68 465.07, 926.44 461.71 C 927.20 458.36, 927.81 456.38, 929.17 452.44 C 930.53 448.49, 931.43 446.28, 933.25 441.97 C 935.08 437.65, 936.18 435.25, 938.28 430.86 C 940.39 426.47, 941.66 423.99, 943.80 420.01 C 945.93 416.04, 947.40 414.03, 948.94 410.97 C 950.49 407.92, 951.20 406.56, 951.52 404.75 C 951.84 402.94, 951.19 402.22, 950.54 401.92 C 949.89 401.62, 949.12 401.97, 948.26 403.25 C 947.41 404.53, 947.03 405.87, 946.26 408.33 C 945.49 410.79, 945.43 412.44, 944.41 415.55 C 943.40 418.67, 942.74 420.41, 941.18 423.92 C 939.63 427.44, 938.68 429.36, 936.64 433.14 C 934.60 436.92, 933.47 438.97, 930.98 442.82 C 928.48 446.67, 927.09 448.70, 924.17 452.37 C 921.25 456.04, 919.65 457.88, 916.37 461.16 C 913.09 464.44, 911.31 466.05, 907.76 468.78 C 904.20 471.51, 902.26 472.79, 898.60 474.82 C 894.94 476.85, 892.96 477.69, 889.48 478.92 C 885.99 480.15, 884.17 480.52, 881.18 480.95 C 878.18 481.38, 876.75 481.11, 874.51 481.06 C 872.27 481.02, 871.32 481.06, 869.98 480.72 C 868.63 480.39, 868.19 480.25, 867.77 479.37 C 867.36 478.49, 867.36 477.91, 867.90 476.33 C 868.45 474.74, 868.98 473.72, 870.50 471.45 C 872.03 469.18, 873.03 467.58, 875.53 464.97 C 878.03 462.36, 879.76 460.82, 883.00 458.39 C 886.23 455.96, 888.25 454.69, 891.70 452.81 C 895.16 450.94, 897.03 450.08, 900.26 449.00 C 903.49 447.91, 905.20 447.76, 907.84 447.40 C 910.49 447.04, 911.53 447.04, 913.51 447.20 C 915.48 447.35, 916.25 447.81, 917.72 448.18 C 919.20 448.54, 919.72 448.86, 920.90 449.04 C 922.08 449.22, 922.73 449.52, 923.64 449.07 C 924.55 448.62, 925.33 447.84, 925.44 446.76" style="stroke: black; fill: black;"/><path d="M 964.74,461.98 C 965.79 462.71, 967.09 462.93, 969.36 462.80 C 971.63 462.68, 973.20 462.27, 976.10 461.36 C 979.01 460.45, 980.79 459.56, 983.89 458.24 C 986.99 456.92, 988.69 456.13, 991.61 454.76 C 994.52 453.40, 996.12 452.86, 998.48 451.41 C 1000.84 449.96, 1001.96 449.16, 1003.40 447.50 C 1004.84 445.84, 1005.43 444.90, 1005.68 443.10 C 1005.93 441.30, 1005.77 440.08, 1004.64 438.50 C 1003.50 436.93, 1002.45 435.92, 1000.01 435.24 C 997.57 434.55, 995.87 434.54, 992.46 435.09 C 989.04 435.63, 986.98 436.47, 982.96 437.98 C 978.93 439.49, 976.50 440.51, 972.33 442.63 C 968.16 444.76, 965.83 446.10, 962.10 448.60 C 958.38 451.09, 956.43 452.40, 953.72 455.11 C 951.01 457.81, 949.70 459.25, 948.57 462.11 C 947.45 464.97, 947.45 466.66, 948.08 469.40 C 948.71 472.14, 949.45 473.71, 951.73 475.80 C 954.02 477.90, 955.86 478.63, 959.50 479.86 C 963.14 481.09, 965.40 481.35, 969.93 481.94 C 974.46 482.53, 977.07 482.61, 982.15 482.82 C 987.23 483.02, 990.10 483.01, 995.33 482.97 C 1000.56 482.92, 1003.67 482.76, 1008.31 482.59 C 1012.95 482.42, 1015.23 482.55, 1018.53 482.12 C 1021.84 481.69, 1023.60 481.23, 1024.82 480.45 C 1026.04 479.66, 1025.95 478.78, 1024.64 478.20 C 1023.32 477.62, 1021.55 477.56, 1018.25 477.54 C 1014.94 477.52, 1012.70 477.87, 1008.11 478.12 C 1003.51 478.37, 1000.43 478.71, 995.29 478.78 C 990.15 478.85, 987.31 478.81, 982.40 478.45 C 977.49 478.09, 974.92 477.82, 970.74 476.98 C 966.57 476.15, 964.54 475.46, 961.53 474.28 C 958.51 473.10, 957.38 472.28, 955.66 471.06 C 953.94 469.84, 953.32 469.53, 952.92 468.18 C 952.52 466.83, 952.74 466.18, 953.66 464.31 C 954.57 462.44, 955.26 461.15, 957.50 458.82 C 959.73 456.48, 961.45 454.99, 964.85 452.65 C 968.26 450.31, 970.56 448.97, 974.52 447.13 C 978.49 445.29, 980.91 444.41, 984.69 443.45 C 988.46 442.48, 990.52 442.58, 993.39 442.32 C 996.26 442.06, 997.37 442.24, 999.03 442.14 C 1000.68 442.04, 1001.11 441.87, 1001.66 441.82 C 1002.21 441.76, 1002.20 441.60, 1001.79 441.85 C 1001.37 442.10, 1000.93 442.34, 999.59 443.06 C 998.26 443.78, 997.26 444.34, 995.09 445.46 C 992.93 446.57, 991.54 447.39, 988.79 448.64 C 986.03 449.88, 984.35 450.61, 981.33 451.68 C 978.30 452.76, 976.39 453.04, 973.65 454.01 C 970.91 454.98, 969.54 455.50, 967.63 456.53 C 965.72 457.55, 964.69 458.06, 964.11 459.15 C 963.53 460.24, 963.69 461.25, 964.74 461.98" style="stroke: black; fill: black;"/><path d="M 1191.83,403.82 C 1190.85 404.25, 1190.50 404.88, 1189.56 406.53 C 1188.62 408.19, 1188.08 409.22, 1187.11 412.09 C 1186.14 414.95, 1185.99 417.06, 1184.71 420.86 C 1183.44 424.66, 1182.61 426.84, 1180.76 431.08 C 1178.90 435.33, 1177.68 437.69, 1175.43 442.09 C 1173.17 446.49, 1171.84 448.84, 1169.48 453.09 C 1167.11 457.33, 1165.84 459.51, 1163.58 463.32 C 1161.33 467.12, 1160.20 469.02, 1158.20 472.13 C 1156.19 475.24, 1154.93 476.48, 1153.57 478.87 C 1152.20 481.25, 1151.92 482.38, 1151.38 484.06 C 1150.85 485.74, 1150.68 486.44, 1150.90 487.28 C 1151.12 488.12, 1151.64 488.43, 1152.48 488.25 C 1153.33 488.07, 1153.86 487.62, 1155.14 486.38 C 1156.41 485.14, 1157.37 484.39, 1158.85 482.05 C 1160.34 479.70, 1160.83 477.96, 1162.54 474.65 C 1164.26 471.34, 1165.30 469.40, 1167.42 465.49 C 1169.54 461.59, 1170.79 459.40, 1173.14 455.12 C 1175.50 450.84, 1176.83 448.48, 1179.21 444.08 C 1181.59 439.68, 1182.86 437.33, 1185.04 433.12 C 1187.21 428.92, 1188.26 426.77, 1190.06 423.05 C 1191.87 419.32, 1192.99 417.48, 1194.05 414.50 C 1195.11 411.52, 1195.27 410.18, 1195.36 408.15 C 1195.44 406.13, 1195.17 405.25, 1194.46 404.38 C 1193.76 403.51, 1192.81 403.39, 1191.83 403.82" style="stroke: black; fill: black;"/><path d="M 1181.00,393.04 C 1182.10 392.99, 1182.60 392.22, 1184.12 391.22 C 1185.63 390.22, 1186.38 389.57, 1188.58 388.03 C 1190.77 386.48, 1191.94 385.03, 1195.09 383.51 C 1198.25 381.99, 1200.36 381.33, 1204.35 380.44 C 1208.34 379.56, 1210.79 379.25, 1215.06 379.08 C 1219.34 378.92, 1221.73 378.99, 1225.72 379.63 C 1229.71 380.27, 1231.77 380.90, 1235.01 382.28 C 1238.25 383.65, 1239.81 384.69, 1241.93 386.50 C 1244.06 388.32, 1244.77 389.33, 1245.65 391.34 C 1246.53 393.36, 1246.65 394.24, 1246.34 396.58 C 1246.03 398.91, 1245.71 400.23, 1244.12 403.02 C 1242.52 405.81, 1241.28 407.51, 1238.37 410.54 C 1235.46 413.56, 1233.50 415.22, 1229.55 418.14 C 1225.60 421.06, 1223.14 422.56, 1218.60 425.13 C 1214.05 427.69, 1211.43 428.96, 1206.83 430.97 C 1202.23 432.97, 1199.71 433.85, 1195.60 435.15 C 1191.48 436.45, 1189.35 436.73, 1186.26 437.47 C 1183.17 438.20, 1181.93 438.23, 1180.14 438.81 C 1178.35 439.38, 1178.00 439.86, 1177.30 440.34 C 1176.60 440.83, 1176.77 440.92, 1176.63 441.26 C 1176.48 441.60, 1176.40 441.69, 1176.57 442.05 C 1176.75 442.41, 1176.60 442.70, 1177.49 443.07 C 1178.38 443.45, 1178.98 444.01, 1181.01 443.94 C 1183.04 443.86, 1184.42 443.63, 1187.64 442.71 C 1190.85 441.79, 1192.90 440.94, 1197.07 439.33 C 1201.23 437.72, 1203.77 436.79, 1208.47 434.65 C 1213.16 432.51, 1215.84 431.23, 1220.55 428.63 C 1225.27 426.03, 1227.80 424.57, 1232.05 421.65 C 1236.29 418.72, 1238.43 417.16, 1241.78 414.00 C 1245.14 410.84, 1246.74 409.19, 1248.83 405.85 C 1250.91 402.52, 1251.78 400.70, 1252.20 397.33 C 1252.63 393.95, 1252.30 392.00, 1250.94 388.99 C 1249.58 385.98, 1248.24 384.55, 1245.43 382.28 C 1242.61 380.01, 1240.68 379.10, 1236.88 377.64 C 1233.08 376.18, 1230.83 375.63, 1226.45 374.97 C 1222.06 374.31, 1219.54 374.26, 1214.93 374.35 C 1210.32 374.43, 1207.82 374.69, 1203.40 375.39 C 1198.97 376.10, 1196.63 376.57, 1192.81 377.87 C 1188.99 379.17, 1186.95 380.05, 1184.29 381.89 C 1181.64 383.74, 1180.69 385.16, 1179.55 387.08 C 1178.42 389.00, 1178.33 390.30, 1178.62 391.49 C 1178.91 392.68, 1179.90 393.10, 1181.00 393.04" style="stroke: black; fill: black;"/><path d="M 1255.03,455.31 C 1254.12 455.53, 1253.99 455.87, 1253.07 456.85 C 1252.15 457.84, 1251.58 458.42, 1250.44 460.24 C 1249.31 462.06, 1248.74 463.46, 1247.40 465.97 C 1246.05 468.48, 1245.32 470.20, 1243.71 472.80 C 1242.09 475.41, 1240.79 476.74, 1239.31 478.98 C 1237.84 481.22, 1236.99 482.31, 1236.33 484.01 C 1235.68 485.70, 1235.62 486.58, 1236.05 487.44 C 1236.47 488.30, 1237.25 488.64, 1238.45 488.30 C 1239.64 487.96, 1240.61 487.48, 1242.03 485.74 C 1243.45 484.01, 1243.83 482.39, 1245.53 479.63 C 1247.23 476.86, 1248.12 474.93, 1250.52 471.93 C 1252.93 468.93, 1254.54 467.32, 1257.55 464.62 C 1260.57 461.92, 1262.38 460.55, 1265.58 458.43 C 1268.78 456.32, 1270.53 455.37, 1273.57 454.03 C 1276.60 452.70, 1278.19 452.38, 1280.76 451.75 C 1283.33 451.12, 1284.38 450.97, 1286.42 450.89 C 1288.46 450.81, 1289.42 451.22, 1290.94 451.36 C 1292.47 451.49, 1292.97 451.56, 1294.05 451.56 C 1295.13 451.57, 1295.69 451.81, 1296.35 451.40 C 1297.01 450.99, 1297.48 450.33, 1297.34 449.50 C 1297.20 448.67, 1296.72 448.07, 1295.66 447.27 C 1294.60 446.47, 1293.92 446.03, 1292.03 445.52 C 1290.15 445.02, 1288.81 444.70, 1286.24 444.75 C 1283.66 444.81, 1282.16 444.93, 1279.16 445.81 C 1276.16 446.69, 1274.51 447.45, 1271.23 449.13 C 1267.95 450.81, 1266.16 451.89, 1262.75 454.21 C 1259.34 456.53, 1257.49 457.96, 1254.18 460.72 C 1250.88 463.49, 1249.19 465.14, 1246.24 468.04 C 1243.29 470.94, 1241.67 472.51, 1239.42 475.24 C 1237.18 477.96, 1235.94 479.35, 1235.00 481.66 C 1234.06 483.98, 1234.27 485.33, 1234.74 486.83 C 1235.20 488.33, 1236.05 488.95, 1237.34 489.16 C 1238.62 489.37, 1239.56 489.03, 1241.18 487.88 C 1242.80 486.73, 1243.70 485.61, 1245.43 483.40 C 1247.17 481.19, 1248.04 479.50, 1249.87 476.84 C 1251.70 474.19, 1252.97 472.73, 1254.58 470.12 C 1256.19 467.52, 1257.08 466.10, 1257.92 463.82 C 1258.75 461.54, 1258.81 460.32, 1258.74 458.71 C 1258.68 457.10, 1258.33 456.45, 1257.59 455.77 C 1256.85 455.09, 1255.93 455.10, 1255.03 455.31" style="stroke: black; fill: black;"/><path d="M 1342.81,459.89 C 1342.73 458.83, 1342.28 458.11, 1341.08 457.16 C 1339.88 456.21, 1338.95 455.62, 1336.81 455.15 C 1334.66 454.68, 1333.13 454.46, 1330.36 454.83 C 1327.58 455.20, 1325.97 455.77, 1322.92 457.01 C 1319.88 458.26, 1318.22 459.20, 1315.12 461.04 C 1312.02 462.88, 1310.28 463.98, 1307.42 466.21 C 1304.56 468.44, 1302.93 469.64, 1300.83 472.20 C 1298.73 474.76, 1297.76 476.29, 1296.92 479.02 C 1296.07 481.75, 1295.98 483.32, 1296.61 485.84 C 1297.25 488.35, 1298.02 489.75, 1300.10 491.60 C 1302.17 493.45, 1303.77 494.37, 1306.98 495.08 C 1310.19 495.78, 1312.25 495.49, 1316.15 495.12 C 1320.04 494.75, 1322.29 494.27, 1326.47 493.22 C 1330.65 492.17, 1332.98 491.43, 1337.04 489.85 C 1341.11 488.27, 1343.26 487.32, 1346.79 485.31 C 1350.33 483.30, 1352.11 482.17, 1354.72 479.80 C 1357.33 477.43, 1358.50 476.08, 1359.84 473.46 C 1361.19 470.85, 1361.47 469.30, 1361.45 466.72 C 1361.42 464.13, 1360.95 462.67, 1359.72 460.52 C 1358.49 458.37, 1357.32 457.33, 1355.30 455.95 C 1353.29 454.56, 1351.83 454.07, 1349.62 453.60 C 1347.42 453.12, 1346.04 453.23, 1344.26 453.57 C 1342.49 453.90, 1341.71 454.49, 1340.74 455.26 C 1339.78 456.04, 1339.52 456.66, 1339.44 457.43 C 1339.36 458.20, 1339.83 458.66, 1340.34 459.11 C 1340.85 459.56, 1341.16 459.42, 1342.00 459.68 C 1342.84 459.94, 1343.30 460.19, 1344.53 460.40 C 1345.75 460.62, 1346.68 460.48, 1348.13 460.77 C 1349.59 461.05, 1350.48 461.23, 1351.80 461.84 C 1353.12 462.44, 1353.92 462.81, 1354.75 463.79 C 1355.58 464.77, 1355.99 465.35, 1355.97 466.72 C 1355.95 468.10, 1355.68 468.88, 1354.65 470.67 C 1353.62 472.45, 1352.92 473.61, 1350.83 475.65 C 1348.74 477.69, 1347.30 478.97, 1344.18 480.87 C 1341.06 482.77, 1339.02 483.72, 1335.24 485.15 C 1331.46 486.58, 1329.17 487.23, 1325.28 488.01 C 1321.40 488.79, 1319.19 489.02, 1315.81 489.05 C 1312.43 489.09, 1310.81 488.61, 1308.38 488.17 C 1305.94 487.73, 1304.97 487.57, 1303.63 486.87 C 1302.30 486.17, 1301.91 485.79, 1301.69 484.65 C 1301.47 483.51, 1301.72 482.82, 1302.55 481.17 C 1303.38 479.53, 1304.09 478.42, 1305.84 476.42 C 1307.58 474.41, 1308.79 473.08, 1311.27 471.14 C 1313.76 469.20, 1315.43 468.16, 1318.27 466.72 C 1321.10 465.28, 1322.80 464.73, 1325.42 463.93 C 1328.04 463.12, 1329.30 462.93, 1331.36 462.68 C 1333.43 462.44, 1334.25 462.64, 1335.75 462.69 C 1337.25 462.74, 1337.72 462.96, 1338.86 462.92 C 1340.00 462.87, 1340.65 463.07, 1341.44 462.47 C 1342.23 461.86, 1342.88 460.95, 1342.81 459.89" style="stroke: black; fill: black;"/><path d="M 1423.64,460.40 C 1423.43 459.31, 1422.82 458.50, 1421.35 457.60 C 1419.88 456.69, 1418.75 456.18, 1416.30 455.89 C 1413.84 455.60, 1412.08 455.41, 1409.07 456.13 C 1406.05 456.84, 1404.45 457.85, 1401.23 459.46 C 1398.01 461.07, 1396.23 462.08, 1392.96 464.18 C 1389.70 466.28, 1387.85 467.53, 1384.90 469.97 C 1381.95 472.40, 1380.35 473.74, 1378.20 476.35 C 1376.05 478.95, 1375.08 480.39, 1374.14 483.00 C 1373.20 485.60, 1373.07 487.02, 1373.48 489.38 C 1373.89 491.74, 1374.52 493.02, 1376.18 494.79 C 1377.85 496.57, 1379.15 497.42, 1381.81 498.26 C 1384.47 499.10, 1386.19 499.24, 1389.47 498.99 C 1392.75 498.75, 1394.62 498.16, 1398.21 497.02 C 1401.80 495.88, 1403.74 495.10, 1407.42 493.29 C 1411.10 491.47, 1413.04 490.38, 1416.61 487.94 C 1420.19 485.50, 1422.02 484.09, 1425.29 481.09 C 1428.56 478.10, 1430.10 476.38, 1432.96 472.97 C 1435.81 469.56, 1437.14 467.71, 1439.55 464.05 C 1441.96 460.39, 1443.03 458.38, 1445.00 454.65 C 1446.96 450.92, 1447.80 448.96, 1449.37 445.40 C 1450.93 441.83, 1451.61 440.05, 1452.81 436.83 C 1454.02 433.61, 1454.83 432.08, 1455.38 429.31 C 1455.92 426.55, 1456.06 424.93, 1455.53 423.01 C 1454.99 421.09, 1454.18 420.16, 1452.70 419.72 C 1451.22 419.28, 1449.85 419.35, 1448.13 420.82 C 1446.40 422.29, 1445.65 423.85, 1444.08 427.07 C 1442.51 430.30, 1441.95 432.73, 1440.29 436.95 C 1438.62 441.17, 1437.56 443.72, 1435.75 448.17 C 1433.95 452.61, 1432.93 454.94, 1431.26 459.19 C 1429.59 463.44, 1428.74 465.56, 1427.42 469.41 C 1426.10 473.25, 1425.43 475.08, 1424.67 478.41 C 1423.90 481.75, 1423.61 483.32, 1423.59 486.08 C 1423.56 488.85, 1423.88 490.12, 1424.55 492.24 C 1425.23 494.35, 1425.84 495.33, 1426.98 496.66 C 1428.12 498.00, 1429.05 498.52, 1430.24 498.91 C 1431.43 499.30, 1432.24 499.09, 1432.94 498.61 C 1433.64 498.13, 1433.75 497.25, 1433.72 496.51 C 1433.69 495.76, 1433.27 495.53, 1432.80 494.87 C 1432.33 494.21, 1431.95 494.03, 1431.37 493.19 C 1430.79 492.35, 1430.25 492.07, 1429.89 490.66 C 1429.53 489.25, 1429.53 488.39, 1429.56 486.15 C 1429.60 483.91, 1429.58 482.53, 1430.07 479.47 C 1430.55 476.41, 1430.91 474.58, 1431.98 470.85 C 1433.06 467.12, 1433.84 464.99, 1435.45 460.83 C 1437.07 456.66, 1438.07 454.33, 1440.05 450.02 C 1442.02 445.70, 1443.25 443.21, 1445.32 439.25 C 1447.39 435.28, 1448.82 433.25, 1450.37 430.22 C 1451.93 427.18, 1452.70 425.86, 1453.11 424.08 C 1453.52 422.30, 1452.95 421.59, 1452.41 421.32 C 1451.88 421.05, 1451.13 421.41, 1450.42 422.73 C 1449.70 424.04, 1449.43 425.41, 1448.83 427.89 C 1448.23 430.36, 1448.25 431.98, 1447.42 435.10 C 1446.59 438.22, 1446.01 439.99, 1444.68 443.47 C 1443.35 446.95, 1442.56 448.87, 1440.77 452.48 C 1438.97 456.10, 1437.96 458.03, 1435.70 461.54 C 1433.43 465.05, 1432.16 466.81, 1429.45 470.03 C 1426.74 473.24, 1425.26 474.85, 1422.15 477.61 C 1419.04 480.37, 1417.29 481.67, 1413.90 483.83 C 1410.50 485.98, 1408.63 486.94, 1405.18 488.39 C 1401.72 489.84, 1399.85 490.41, 1396.63 491.08 C 1393.40 491.76, 1391.70 491.67, 1389.05 491.76 C 1386.41 491.85, 1385.24 491.77, 1383.40 491.55 C 1381.56 491.32, 1380.83 491.21, 1379.85 490.65 C 1378.86 490.08, 1378.52 489.77, 1378.47 488.71 C 1378.42 487.65, 1378.68 487.03, 1379.58 485.35 C 1380.49 483.67, 1381.19 482.50, 1383.00 480.31 C 1384.81 478.13, 1386.02 476.65, 1388.63 474.43 C 1391.24 472.21, 1393.02 471.00, 1396.07 469.21 C 1399.11 467.43, 1400.95 466.56, 1403.86 465.50 C 1406.77 464.44, 1408.22 464.30, 1410.63 463.92 C 1413.04 463.55, 1414.10 463.70, 1415.91 463.62 C 1417.72 463.54, 1418.36 463.64, 1419.67 463.53 C 1420.98 463.41, 1421.64 463.66, 1422.44 463.04 C 1423.23 462.41, 1423.86 461.49, 1423.64 460.40" style="stroke: black; fill: black;"/><path d="M 1517.87,402.28 C 1516.87 402.26, 1516.35 402.54, 1515.09 403.53 C 1513.84 404.52, 1512.99 405.23, 1511.58 407.23 C 1510.18 409.22, 1509.59 410.75, 1508.07 413.51 C 1506.55 416.27, 1505.74 418.01, 1503.96 421.02 C 1502.18 424.02, 1501.07 425.64, 1499.15 428.54 C 1497.23 431.44, 1495.92 432.91, 1494.37 435.51 C 1492.82 438.10, 1492.13 439.41, 1491.39 441.53 C 1490.65 443.64, 1490.40 444.94, 1490.66 446.07 C 1490.92 447.20, 1491.62 447.54, 1492.69 447.17 C 1493.76 446.81, 1494.55 445.87, 1496.01 444.24 C 1497.47 442.62, 1498.32 441.53, 1499.97 439.06 C 1501.63 436.58, 1502.42 434.80, 1504.29 431.89 C 1506.16 428.98, 1507.29 427.37, 1509.32 424.50 C 1511.35 421.63, 1512.60 420.13, 1514.46 417.55 C 1516.31 414.96, 1517.43 413.73, 1518.60 411.56 C 1519.77 409.39, 1519.99 408.27, 1520.29 406.68 C 1520.59 405.10, 1520.60 404.51, 1520.11 403.63 C 1519.63 402.75, 1518.88 402.30, 1517.87 402.28" style="stroke: black; fill: black;"/></svg>